<?xml version="1.0" encoding="UTF-8" standalone="no"?>
<!DOCTYPE svg PUBLIC "-//W3C//DTD SVG 1.1//EN" "http://www.w3.org/Graphics/SVG/1.1/DTD/svg11.dtd">
<svg width="100%" height="100%" viewBox="0 0 32 32" version="1.1" xmlns="http://www.w3.org/2000/svg" xmlns:xlink="http://www.w3.org/1999/xlink" xml:space="preserve" xmlns:serif="http://www.serif.com/" style="fill-rule:evenodd;clip-rule:evenodd;stroke-linejoin:round;stroke-miterlimit:2;">
    <rect x="0" y="0" width="32" height="32" style="fill:rgb(250,249,246);"/>
    <g transform="matrix(0.934446,0,0,0.937142,1.11221,1.11919)">
        <path d="M30.914,0.94L30.914,30.818L0.95,30.818L0.95,0.94L30.914,0.94ZM29.844,2.007L2.02,2.007L2.02,29.751L29.844,29.751L29.844,2.007Z"/>
    </g>
    <g transform="matrix(1,0,0,1,0.0562686,10.9743)">
        <path d="M12.169,14.997C11.452,14.997 10.71,14.914 9.944,14.747L9.944,11.697C10.344,11.747 10.652,11.772 10.869,11.772C11.319,11.772 11.648,11.676 11.856,11.485C12.065,11.293 12.169,10.881 12.169,10.247L12.169,0.41L16.169,0.41L16.169,10.047C16.169,11.681 15.856,12.914 15.231,13.747C14.606,14.581 13.585,14.997 12.169,14.997ZM12.169,-4.466L16.169,-4.466L16.169,-0.916L12.169,-0.916L12.169,-4.466Z" style="fill-rule:nonzero;"/>
        <rect x="18.219" y="6.622" width="3.8" height="3.8" style="fill-rule:nonzero;"/>
    </g>
</svg>
